<svg xmlns="http://www.w3.org/2000/svg" viewBox="0 0 24 24" aria-hidden="true">
  <!-- Bubble -->
  <path
    d="M21 11.5a8.38 8.38 0 0 1-.9 3.8 8.5 8.5 0 0 1-7.6 4.7 8.38 8.38 0 0 1-3.8-.9L3 21l1.9-5.7a8.38 8.38 0 0 1-.9-3.8 8.5 8.5 0 0 1 4.7-7.6 8.38 8.38 0 0 1 3.8-.9h.5a8.48 8.48 0 0 1 8 8v.5Z"
    fill="#0f172a"
    stroke="#38bdf8"
    stroke-width="1"
    stroke-linejoin="round"
  />
  <!-- Accent dots (green) -->
  <circle cx="9" cy="12" r="1" fill="#22c55e"/>
  <circle cx="12" cy="12" r="1" fill="#22c55e"/>
  <circle cx="15" cy="12" r="1" fill="#22c55e"/>
</svg>
