<svg xmlns="http://www.w3.org/2000/svg" viewBox="0 0 24 24" aria-hidden="true">
  <!-- Chip body -->
  <rect x="5" y="5" width="14" height="14" rx="3" fill="#0f172a" stroke="#38bdf8" stroke-width="1"/>

  <!-- Inner frame -->
  <rect x="8" y="8" width="8" height="8" rx="1.5" fill="none" stroke="#38bdf8" stroke-width="1.5"/>

  <!-- AI text (accent — same green as overview graph) -->
  <text
    x="12"
    y="13.5"
    text-anchor="middle"
    font-size="5"
    font-family="Arial, Helvetica, sans-serif"
    fill="#22c55e"
    stroke="none"
    font-weight="bold"
  >
    AI
  </text>

  <!-- Pins -->
  <line x1="9" y1="2.5" x2="9" y2="5" stroke="#38bdf8" stroke-width="1.5" stroke-linecap="round"/>
  <line x1="12" y1="2.5" x2="12" y2="5" stroke="#38bdf8" stroke-width="1.5" stroke-linecap="round"/>
  <line x1="15" y1="2.5" x2="15" y2="5" stroke="#38bdf8" stroke-width="1.5" stroke-linecap="round"/>

  <line x1="9" y1="19" x2="9" y2="21.5" stroke="#38bdf8" stroke-width="1.5" stroke-linecap="round"/>
  <line x1="12" y1="19" x2="12" y2="21.5" stroke="#38bdf8" stroke-width="1.5" stroke-linecap="round"/>
  <line x1="15" y1="19" x2="15" y2="21.5" stroke="#38bdf8" stroke-width="1.5" stroke-linecap="round"/>

  <line x1="2.5" y1="9" x2="5" y2="9" stroke="#38bdf8" stroke-width="1.5" stroke-linecap="round"/>
  <line x1="2.5" y1="12" x2="5" y2="12" stroke="#38bdf8" stroke-width="1.5" stroke-linecap="round"/>
  <line x1="2.5" y1="15" x2="5" y2="15" stroke="#38bdf8" stroke-width="1.5" stroke-linecap="round"/>

  <line x1="19" y1="9" x2="21.5" y2="9" stroke="#38bdf8" stroke-width="1.5" stroke-linecap="round"/>
  <line x1="19" y1="12" x2="21.5" y2="12" stroke="#38bdf8" stroke-width="1.5" stroke-linecap="round"/>
  <line x1="19" y1="15" x2="21.5" y2="15" stroke="#38bdf8" stroke-width="1.5" stroke-linecap="round"/>
</svg>
