<?xml version="1.0" encoding="UTF-8"?>
<svg version="1.1" xmlns="http://www.w3.org/2000/svg" width="3000" height="3000">
<path d="M0 0 C1.60268195 -0.00395427 3.20536343 -0.00809918 4.80804443 -0.01242065 C9.06047853 -0.02169226 13.31287276 -0.02281662 17.56531525 -0.02070999 C20.20750556 -0.01952579 22.8496919 -0.02006428 25.49188232 -0.02072144 C50.81349307 -0.01936893 76.04860614 0.41006796 101.33666992 1.81034851 C107.62406038 2.15333976 113.90251754 2.32702344 120.19799805 2.46264648 C130.902451 2.70849396 141.15270776 3.71217819 151.69433594 5.58764648 C159.92135557 7.03144834 168.12621645 7.8834908 176.4453125 8.60546875 C191.49662672 9.94525667 206.29166856 12.15395469 221.17382812 14.78826904 C222.6954979 15.05744294 224.21750625 15.32470605 225.73974609 15.59063721 C240.1353063 18.11094732 254.43272064 20.98069169 268.6953125 24.16796875 C269.74569702 24.40240692 270.79608154 24.63684509 271.8782959 24.87838745 C293.0242071 29.63217652 313.71042719 35.48300421 334.3203125 42.16796875 C335.59244327 42.57716287 336.86457845 42.9863433 338.13671875 43.39550781 C371.25941748 54.14856835 404.07369731 66.7716545 435.3203125 82.16796875 C436.87104188 82.92198169 438.42181833 83.67589784 439.97265625 84.4296875 C443.16588217 85.99421434 446.33786523 87.59548374 449.49707031 89.22753906 C450.74667517 89.87208619 451.99876854 90.51182494 453.25292969 91.14746094 C472.70011448 101.00894291 491.0603868 112.80121075 509.24316406 124.80029297 C511.01061289 125.96405042 512.78576318 127.11609769 514.5625 128.265625 C532.63553482 140.05565187 550.04114995 153.3435167 565.9140625 167.97265625 C567.25427679 169.19538422 568.60236637 170.41011289 569.97886658 171.59184265 C575.42835872 176.2710203 580.53437757 181.23657497 585.60546875 186.3203125 C586.46538925 187.17927628 587.32530975 188.03824005 588.21128845 188.92323303 C590.01847111 190.7297389 591.82440642 192.53749337 593.62915039 194.34643555 C596.37469643 197.09733685 599.12553796 199.84286096 601.87695312 202.58789062 C603.6409457 204.35254407 605.404628 206.11750772 607.16796875 207.8828125 C608.38855736 209.10036476 608.38855736 209.10036476 609.63380432 210.34251404 C613.87797212 214.60395575 617.97153531 218.9385276 621.88957214 223.50254822 C623.73201932 225.64720664 625.65206112 227.71612178 627.5703125 229.79296875 C637.80622672 241.17197999 646.62149848 253.59982107 655.3203125 266.16796875 C655.79500977 266.85181641 656.26970703 267.53566406 656.75878906 268.24023438 C659.9685935 272.8674991 663.15283799 277.51164065 666.3203125 282.16796875 C666.96613281 283.11518799 666.96613281 283.11518799 667.625 284.08154297 C712.88611372 350.618809 742.9608878 431.64823313 749.6640625 511.8984375 C750.03947814 516.34491128 750.5042111 520.74312224 751.1640625 525.15625 C755.4851622 554.16618415 754.6581533 583.91980083 749.83740234 612.78515625 C748.93325038 618.70013718 748.3985717 624.65142086 747.8203125 630.60546875 C746.79679987 640.7341833 745.29384982 650.65305675 743.36328125 660.64453125 C742.17352387 666.81871046 741.17770506 673.02039403 740.1953125 679.23046875 C740.03683838 680.22908936 739.87836426 681.22770996 739.71508789 682.2565918 C739.4134614 684.16752622 739.11519506 686.07899521 738.82090759 687.99107361 C738.49774653 690.04193035 738.15977087 692.09053295 737.80383301 694.13595581 C736.50031444 701.87278933 735.99999384 709.36462045 735.984375 717.203125 C735.9777182 718.40247177 735.9710614 719.60181854 735.96420288 720.83750916 C735.95414816 723.35934941 735.94938361 725.88121589 735.94970703 728.40307617 C735.94535103 732.1969145 735.90899807 735.98957101 735.87109375 739.78320312 C735.80447891 754.05757713 736.65902296 767.34731769 740.3203125 781.16796875 C740.58682617 782.20800049 740.85333984 783.24803223 741.12792969 784.31958008 C741.80547476 786.76124335 742.55695318 789.14787363 743.3828125 791.54296875 C743.67317383 792.3947168 743.96353516 793.24646484 744.26269531 794.12402344 C750.26843615 811.00785486 759.1607051 826.47595834 769.3203125 841.16796875 C769.7416748 841.78607422 770.16303711 842.40417969 770.59716797 843.04101562 C776.23824249 851.29667642 782.3648899 858.99786228 788.91601562 866.54589844 C791.29957037 869.2990865 793.6542046 872.07667718 796.0078125 874.85546875 C796.46994141 875.40025879 796.93207031 875.94504883 797.40820312 876.50634766 C800.07893363 879.66518378 802.69197702 882.86106521 805.2578125 886.10546875 C806.6097665 887.79474196 807.96405273 889.48215053 809.3203125 891.16796875 C810.06152344 892.09738281 810.80273438 893.02679687 811.56640625 893.984375 C819.65527563 903.87215896 828.76791642 912.74654803 837.89208984 921.66601562 C844.512785 928.16586821 850.61151385 934.83256522 856.3203125 942.16796875 C857.18668335 943.26177856 857.18668335 943.26177856 858.07055664 944.37768555 C878.02389036 969.68677175 899.65482753 999.42693119 897.3203125 1033.16796875 C894.54750427 1053.03254023 884.80851899 1072.04277689 868.73632812 1084.38427734 C861.22471434 1089.89148547 853.19796577 1094.38627715 845.0078125 1098.79296875 C833.26309089 1105.14331241 823.10635033 1111.25094704 818.515625 1124.48828125 C815.07257952 1138.02463812 819.13865853 1150.83819288 824.16259766 1163.43579102 C830.22248942 1178.74220799 832.10242682 1197.57236594 826.16796875 1213.203125 C822.15391034 1221.82056342 816.45506273 1228.75618333 809.98828125 1235.65625 C801.67504386 1244.53597716 794.87153961 1253.76537809 794.88671875 1266.2578125 C795.44148149 1271.26067286 796.83727105 1275.80892307 798.3203125 1280.60546875 C802.04130973 1292.80990885 803.46201628 1303.45885038 797.3203125 1315.16796875 C792.15102834 1323.56185436 785.99299368 1330.7842828 779.22241211 1337.91723633 C764.82991383 1353.13301182 754.7258078 1367.42301049 755.0390625 1389.0234375 C755.32449932 1396.68884327 757.2346885 1403.82429113 759.3203125 1411.16796875 C766.70033761 1437.40504331 766.75337459 1462.53068936 753.9453125 1487.35546875 C742.1185277 1507.3838717 724.55850161 1523.04087439 702.3203125 1530.16796875 C696.92081806 1531.54238552 691.43209793 1532.46938429 685.9453125 1533.41796875 C684.52192899 1533.67463914 683.0987502 1533.93244743 681.67578125 1534.19140625 C661.85972917 1537.76626086 644.62409597 1537.21091846 624.8203125 1534.29296875 C623.75985718 1534.13935883 622.69940186 1533.9857489 621.60681152 1533.82748413 C587.15134999 1528.80019417 553.32003122 1520.88097512 519.39663696 1513.13635254 C495.09372939 1507.59409529 470.81490093 1502.83235512 446.1328125 1499.29296875 C445.37918427 1499.18292511 444.62555603 1499.07288147 443.84909058 1498.95950317 C415.67205214 1494.88769922 391.20623218 1500.71002998 368.0793457 1517.5534668 C361.16302947 1522.7352019 354.54220658 1528.16311749 348.3203125 1534.16796875 C347.7221875 1534.7403125 347.1240625 1535.31265625 346.5078125 1535.90234375 C338.17820263 1543.90657824 330.41778062 1551.93370243 323.65429688 1561.32470703 C322.12963618 1563.43143987 320.57788091 1565.5167118 319.0234375 1567.6015625 C307.29564426 1583.35997563 295.98181113 1599.26597258 285.66503906 1615.98974609 C284.48282257 1617.90473075 283.28969784 1619.81233269 282.09375 1621.71875 C241.04217271 1688.36990638 217.92192845 1762.77432055 207.64338684 1840.0193634 C207.408322 1841.5826617 207.12983995 1843.13961794 206.82572937 1844.69096375 C204.74207947 1856.04028923 204.93325838 1867.45000883 204.87890625 1878.953125 C204.86855189 1880.67323697 204.86855189 1880.67323697 204.85798836 1882.42809868 C204.82223819 1888.52832012 204.79867616 1894.62845071 204.78491211 1900.72875977 C204.7718216 1905.67480411 204.7374902 1910.61992201 204.68237305 1915.56567383 C204.33404849 1947.49524093 206.00289973 1977.83922241 212.3203125 2009.16796875 C212.60912499 2010.63014888 212.89741473 2012.09243237 213.18515015 2013.55482483 C225.4393012 2075.39621261 248.37148769 2134.24624907 284.3203125 2186.16796875 C286.26946685 2189.01439007 288.20398352 2191.87025442 290.1328125 2194.73046875 C290.52315674 2195.29548096 290.91350098 2195.86049316 291.31567383 2196.44262695 C295.28093021 2202.29652489 298.27824919 2207.9150195 297.3203125 2215.16796875 C295.25029883 2218.31438954 293.90325851 2219.0320219 290.23828125 2219.88671875 C285.51231588 2220.2259705 281.75229698 2219.4581344 277.1953125 2218.29296875 C276.28773193 2218.06665771 275.38015137 2217.84034668 274.44506836 2217.60717773 C219.06462838 2203.41336235 164.76221382 2180.62386213 113.26641846 2156.09442139 C111.29606386 2155.15642507 109.32378616 2154.22257794 107.35107422 2153.28955078 C92.49657439 2146.25569929 77.75235868 2139.03850641 63.3203125 2131.16796875 C62.30259766 2130.6152832 61.28488281 2130.06259766 60.23632812 2129.49316406 C45.81362708 2121.64042953 31.64685598 2113.47851185 17.76513672 2104.69921875 C15.44523389 2103.24620991 13.10907975 2101.82608188 10.76171875 2100.41796875 C-1.71485439 2092.89894847 -13.79196036 2084.81019177 -25.8671875 2076.66796875 C-26.71173492 2076.09955261 -27.55628235 2075.53113647 -28.42642212 2074.94549561 C-37.51848192 2068.81952622 -46.54781315 2062.61542313 -55.44921875 2056.21484375 C-56.16845016 2055.6993396 -56.88768158 2055.18383545 -57.62870789 2054.65270996 C-66.49289406 2048.23046037 -74.60808315 2040.98260065 -82.6796875 2033.60546875 C-86.47703928 2030.14994078 -90.42885718 2026.98575034 -94.4921875 2023.85546875 C-100.57061427 2019.16618366 -106.21181028 2014.12906429 -111.796875 2008.8671875 C-114.05018776 2006.7573784 -116.32594064 2004.72475218 -118.6796875 2002.73046875 C-127.31300778 1995.25192379 -135.34252843 1986.91181627 -142.6796875 1978.16796875 C-143.92298828 1976.72357422 -143.92298828 1976.72357422 -145.19140625 1975.25 C-151.6277458 1967.75575696 -157.75873157 1960.07461112 -163.6796875 1952.16796875 C-164.123125 1951.57757812 -164.5665625 1950.9871875 -165.0234375 1950.37890625 C-205.18692209 1896.75152626 -232.53953256 1833.53596179 -246.6796875 1768.16796875 C-247.09033447 1766.29637085 -247.09033447 1766.29637085 -247.50927734 1764.38696289 C-249.81008366 1753.40302773 -250.36903063 1742.53993901 -250.76367188 1731.34887695 C-250.67928197 1716.8556434 -250.67928197 1716.8556434 -257.2421875 1704.66796875 C-262.4632583 1701.4550021 -266.60298957 1701.50019975 -272.6796875 1702.16796875 C-277.21365575 1703.30378831 -281.63275426 1704.70267052 -286.0859375 1706.1171875 C-293.9540632 1708.60512738 -301.896508 1710.82798121 -309.8392334 1713.06332397 C-312.3666856 1713.77522321 -314.89287139 1714.49147988 -317.41894531 1715.20825195 C-319.04217008 1715.66670141 -320.66554087 1716.12463419 -322.2890625 1716.58203125 C-323.07935852 1716.80519516 -323.86965454 1717.02835907 -324.68389893 1717.25828552 C-328.51869411 1718.32956283 -332.35510943 1719.3464877 -336.23242188 1720.25292969 C-336.95415588 1720.42319672 -337.67588989 1720.59346375 -338.41949463 1720.76889038 C-340.36718611 1721.2212455 -342.31872795 1721.65693246 -344.27050781 1722.09130859 C-350.18182747 1723.9581748 -354.20169632 1727.07519595 -357.6796875 1732.16796875 C-361.96602064 1741.23443898 -359.5427819 1751.84384907 -357.6171875 1761.29296875 C-357.39458252 1762.40824951 -357.17197754 1763.52353027 -356.94262695 1764.67260742 C-352.87959809 1784.43918053 -347.45760572 1803.54162937 -339.6796875 1822.16796875 C-339.29409668 1823.09174316 -338.90850586 1824.01551758 -338.51123047 1824.96728516 C-335.65998802 1831.74286776 -332.70301845 1838.4675508 -329.6796875 1845.16796875 C-329.28023926 1846.05484375 -328.88079102 1846.94171875 -328.46923828 1847.85546875 C-317.97465911 1870.96847883 -305.06787108 1892.28509145 -290.6796875 1913.16796875 C-290.19902832 1913.87276367 -289.71836914 1914.57755859 -289.22314453 1915.30371094 C-283.83581861 1923.18989118 -277.97099733 1930.58686986 -271.85546875 1937.91699219 C-268.31786906 1942.15787286 -264.88154109 1946.44774442 -261.5546875 1950.85546875 C-253.61866828 1961.27230576 -244.94507629 1971.0308978 -235.95703125 1980.546875 C-231.97902333 1985.12533694 -230.25143629 1988.02970146 -230.6796875 1994.16796875 C-233.98934145 1996.51230696 -236.60607097 1996.13506668 -240.49902344 1995.58197021 C-243.98199197 1994.92072482 -247.2337733 1993.80580003 -250.5546875 1992.58203125 C-251.28445801 1992.31830719 -252.01422852 1992.05458313 -252.76611328 1991.78286743 C-261.20340607 1988.6842505 -269.44728156 1985.14406773 -277.6796875 1981.54296875 C-278.88108368 1981.02023376 -278.88108368 1981.02023376 -280.10675049 1980.48693848 C-294.13033996 1974.38162406 -308.00867945 1968.03283995 -321.6796875 1961.16796875 C-322.63407715 1960.6894043 -323.5884668 1960.21083984 -324.57177734 1959.71777344 C-338.7070966 1952.58468353 -352.414069 1944.81148938 -366.02587891 1936.72998047 C-368.29713827 1935.39313434 -370.5798888 1934.08511269 -372.87890625 1932.796875 C-387.45646277 1924.57307442 -401.1283166 1914.86699384 -414.90533447 1905.38775635 C-416.53349523 1904.26846934 -418.16385729 1903.1523862 -419.79443359 1902.03662109 C-429.56603551 1895.34577157 -439.06629692 1888.46371665 -448.234375 1880.96484375 C-451.51142251 1878.28512683 -454.86681808 1875.7218332 -458.2421875 1873.16796875 C-475.64257141 1859.88001768 -491.31635823 1844.59940046 -506.8046875 1829.16796875 C-507.68133057 1828.29599854 -508.55797363 1827.42402832 -509.46118164 1826.52563477 C-514.40625949 1821.56819303 -519.1645025 1816.52023861 -523.6796875 1811.16796875 C-524.16501953 1810.5946582 -524.65035156 1810.02134766 -525.15039062 1809.43066406 C-532.4432078 1800.71449016 -538.9005182 1791.59474751 -545.0859375 1782.06640625 C-550.00926135 1774.57121013 -554.68351447 1770.07559845 -563.1171875 1766.85546875 C-570.53351458 1765.42424773 -577.54833404 1766.34040477 -584.9296875 1767.54296875 C-595.2059363 1769.09568378 -605.43744737 1769.64301854 -615.8046875 1770.10546875 C-628.35770849 1770.66956553 -640.61067539 1771.67816557 -653.02197266 1773.75952148 C-667.52271699 1776.14561793 -682.12573526 1776.2392352 -696.78759766 1776.40820312 C-714.40689449 1776.61804202 -731.65559155 1777.41571591 -749.13725281 1779.6599884 C-759.2432932 1780.92196997 -769.239428 1781.56984322 -779.41796875 1781.78125 C-780.97566679 1781.81876565 -782.53336017 1781.8564752 -784.09104919 1781.8943634 C-799.90178971 1782.25951035 -815.71409031 1782.35531239 -831.52856445 1782.35327148 C-834.68715047 1782.35318955 -837.84559349 1782.36027255 -841.00415039 1782.3737793 C-864.62313981 1782.47297236 -887.93007905 1781.89122741 -911.3671875 1778.60546875 C-922.50561678 1777.11655212 -933.58539209 1776.81386551 -944.8046875 1776.60546875 C-967.96169644 1776.16687287 -990.42286545 1773.96678888 -1013.35449219 1770.64404297 C-1016.24487426 1770.23022175 -1019.1365207 1769.83506075 -1022.03125 1769.453125 C-1038.34595807 1767.27729295 -1054.52425978 1764.29315715 -1070.6796875 1761.16796875 C-1071.34202393 1761.04055298 -1072.00436035 1760.91313721 -1072.68676758 1760.78186035 C-1096.51093738 1756.17996982 -1119.57980014 1749.5451914 -1142.6796875 1742.16796875 C-1143.41997192 1741.93209045 -1144.16025635 1741.69621216 -1144.92297363 1741.45318604 C-1165.40737793 1734.90553577 -1185.11311565 1727.08067673 -1204.6796875 1718.16796875 C-1205.60056152 1717.75305176 -1206.52143555 1717.33813477 -1207.47021484 1716.91064453 C-1240.86018572 1701.82113177 -1273.25619518 1682.59524045 -1300.6796875 1658.16796875 C-1301.66066406 1657.29785156 -1302.64164063 1656.42773438 -1303.65234375 1655.53125 C-1315.12557181 1645.17662389 -1326.29061549 1634.48177823 -1335.6796875 1622.16796875 C-1336.10846191 1621.61028809 -1336.53723633 1621.05260742 -1336.97900391 1620.47802734 C-1343.44077948 1612.03577142 -1349.27122628 1603.37186192 -1354.54394531 1594.14111328 C-1355.7105801 1592.11429851 -1356.90864461 1590.10833434 -1358.109375 1588.1015625 C-1374.72950914 1559.8499344 -1387.79408542 1523.33206748 -1387.84082031 1490.20776367 C-1387.84578522 1489.3495401 -1387.85075012 1488.49131653 -1387.85586548 1487.60708618 C-1387.87038216 1484.7875282 -1387.87727443 1481.96802662 -1387.8828125 1479.1484375 C-1387.88563988 1478.17552576 -1387.88846725 1477.20261402 -1387.89138031 1476.20022011 C-1387.90633663 1471.04306394 -1387.91558635 1465.88593545 -1387.91992188 1460.72875977 C-1387.92537592 1455.45530781 -1387.94934901 1450.18211803 -1387.97789383 1444.90874767 C-1387.99671607 1440.80838842 -1388.00173627 1436.70808958 -1388.00325775 1432.60769081 C-1388.00624504 1430.66682833 -1388.01413687 1428.72596588 -1388.02744293 1426.78514671 C-1388.10916541 1413.93979195 -1387.05390764 1401.79074362 -1384.6796875 1389.16796875 C-1384.34904297 1387.3022245 -1384.34904297 1387.3022245 -1384.01171875 1385.39878845 C-1369.75153273 1305.28993375 -1332.31220676 1229.85201178 -1286.6796875 1163.16796875 C-1286.05030273 1162.24467773 -1285.42091797 1161.32138672 -1284.77246094 1160.37011719 C-1275.8428656 1147.30491461 -1266.4101118 1134.64674759 -1256.6796875 1122.16796875 C-1256.03346436 1121.32903076 -1255.38724121 1120.49009277 -1254.72143555 1119.62573242 C-1250.25005579 1113.90423055 -1245.46191458 1108.77036897 -1240.2421875 1103.73046875 C-1234.73870011 1098.3259884 -1229.62520068 1092.91893509 -1224.8515625 1086.859375 C-1207.78520203 1065.71059377 -1207.78520203 1065.71059377 -1198.6796875 1064.29296875 C-1197.1946875 1064.23109375 -1197.1946875 1064.23109375 -1195.6796875 1064.16796875 C-1194.98135794 1070.21045925 -1197.34781 1074.11559463 -1200.1796875 1079.23046875 C-1200.86417969 1080.4978186 -1200.86417969 1080.4978186 -1201.5625 1081.79077148 C-1204.72920272 1087.59842023 -1208.10062031 1093.23421883 -1211.63671875 1098.82421875 C-1214.01909968 1102.72348849 -1216.18846264 1106.71525428 -1218.3671875 1110.73046875 C-1221.97885584 1117.35209502 -1225.88993303 1123.69326762 -1230.0546875 1129.98046875 C-1236.15165233 1139.21242939 -1241.74591396 1148.65242456 -1247.10546875 1158.32958984 C-1248.1822477 1160.27106504 -1249.2659167 1162.20873055 -1250.35546875 1164.14306641 C-1264.16883048 1188.69452394 -1275.71450373 1214.10645805 -1283.6796875 1241.16796875 C-1284.03482422 1242.36147949 -1284.38996094 1243.55499023 -1284.75585938 1244.78466797 C-1290.0052997 1262.60202251 -1293.91757576 1280.573269 -1297.1796875 1298.85546875 C-1297.35153564 1299.80964691 -1297.52338379 1300.76382507 -1297.70043945 1301.74691772 C-1308.37667974 1361.57737923 -1300.1072143 1426.57090456 -1265.23828125 1477.56640625 C-1259.32648323 1485.97926528 -1252.64687199 1493.62018555 -1245.6796875 1501.16796875 C-1245.12861328 1501.76947754 -1244.57753906 1502.37098633 -1244.00976562 1502.99072266 C-1235.91089866 1511.81970814 -1227.68632416 1520.25482714 -1218.6796875 1528.16796875 C-1217.639864 1529.1163538 -1216.6008217 1530.06559596 -1215.5625 1531.015625 C-1192.25053022 1552.02393025 -1163.32193581 1566.72661686 -1135.6796875 1581.16796875 C-1134.04290039 1582.02938477 -1134.04290039 1582.02938477 -1132.37304688 1582.90820312 C-1071.30209499 1614.9119095 -1002.4235484 1632.29926942 -934.6796875 1643.16796875 C-932.9921556 1643.44381531 -931.30465269 1643.71983937 -929.6171875 1643.99609375 C-925.80648196 1644.61392649 -921.99237533 1645.20635273 -918.17578125 1645.78662109 C-916.42266636 1646.05445809 -914.67010616 1646.32593896 -912.91796875 1646.60009766 C-895.99712613 1649.24607486 -879.03687772 1651.40658589 -862.03076172 1653.41748047 C-860.34339628 1653.61792682 -858.65605844 1653.81860567 -856.96875 1654.01953125 C-856.15160019 1654.11639221 -855.33445038 1654.21325317 -854.49253845 1654.31304932 C-849.96685859 1654.85901698 -845.4769215 1655.50577324 -840.98046875 1656.26171875 C-834.1614205 1657.34917408 -827.34022798 1657.64772967 -820.45346069 1657.94509888 C-806.78137046 1658.55021892 -793.33976219 1659.75168483 -779.80102539 1661.75927734 C-765.14926565 1663.92719842 -750.72094232 1664.31780563 -735.9440918 1664.31323242 C-733.9924666 1664.3162311 -732.04084199 1664.31963524 -730.08921814 1664.32341003 C-724.82407048 1664.33218547 -719.55893912 1664.3345855 -714.29378486 1664.33522582 C-710.99055615 1664.33594039 -707.68733148 1664.33808243 -704.38410378 1664.34072304 C-692.82043829 1664.34995752 -681.25678428 1664.35406061 -669.69311523 1664.35327148 C-658.98011723 1664.35267231 -648.26716984 1664.36319758 -637.55418462 1664.37901515 C-628.30517809 1664.39217563 -619.05618792 1664.39745179 -609.80717212 1664.39681607 C-604.30629715 1664.39656343 -598.80546716 1664.39928319 -593.30460167 1664.40999413 C-567.45100862 1664.45678866 -542.1605907 1663.97636402 -516.4921875 1660.60546875 C-503.80372801 1658.99501719 -491.138836 1658.69767789 -478.36450195 1658.54663086 C-465.0020932 1658.36149354 -451.97611675 1657.02199169 -438.8046875 1654.73046875 C-429.80931449 1653.23648031 -420.77785737 1652.25568858 -411.71240234 1651.29321289 C-405.08458078 1650.57893988 -398.50930296 1649.73491471 -391.9296875 1648.66796875 C-385.12575645 1647.56660549 -378.35118666 1646.859182 -371.48193359 1646.2980957 C-345.85773579 1644.15753571 -320.75338834 1638.96244 -295.55859375 1633.97265625 C-294.20226837 1633.70490639 -294.20226837 1633.70490639 -292.81854248 1633.43174744 C-288.55761902 1632.58998654 -284.29865593 1631.7406163 -280.04345703 1630.87036133 C-272.6860038 1629.3863415 -265.37916858 1628.08870814 -257.92030334 1627.23052979 C-241.79592759 1625.36423691 -226.1013911 1621.74611694 -210.29686356 1618.14404297 C-206.26818188 1617.22744698 -202.23730375 1616.32059537 -198.20678711 1615.41210938 C-191.85682512 1613.97936271 -185.50869248 1612.5387548 -179.16162109 1611.09326172 C-173.16457077 1609.72786352 -167.16356382 1608.38225505 -161.15736389 1607.05757141 C-131.8227276 1600.58489598 -102.98192291 1592.47997247 -74.12335205 1584.16003418 C-70.81074743 1583.20572505 -67.49712299 1582.25505354 -64.18310547 1581.30566406 C-3.69551853 1569.30519591 -3.69551853 1569.30519591 49.3203125 1543.16796875 C33.83400873 1542.69704021 18.1206534 1546.97921409 3.00390625 1549.9375 C-7.93238652 1552.06799943 -18.87553355 1554.15808642 -29.828125 1556.203125 C-30.49533758 1556.32778893 -31.16255016 1556.45245285 -31.84998131 1556.58089447 C-37.95052782 1557.72056653 -44.05156651 1558.85759226 -50.15283203 1559.9934082 C-54.21156675 1560.74919135 -58.26999521 1561.50660043 -62.328125 1562.265625 C-63.31148394 1562.44951373 -63.31148394 1562.44951373 -64.31470871 1562.63711739 C-74.36566125 1564.51932673 -84.39611527 1566.49169646 -94.41937256 1568.51565552 C-101.6987605 1569.98260642 -108.98627518 1571.34579487 -116.3046875 1572.60546875 C-123.64220344 1573.88079521 -130.95978305 1575.20506002 -138.25390625 1576.7109375 C-152.70742497 1579.67963477 -166.81859407 1581.88092768 -181.50219727 1583.12109375 C-190.68495102 1583.91105861 -199.69277118 1585.1503687 -208.75756836 1586.81103516 C-217.77775148 1588.45464378 -226.76175128 1589.30839182 -235.9296875 1589.41796875 C-237.23421875 1589.44375 -238.53875 1589.46953125 -239.8828125 1589.49609375 C-245.36984704 1589.02190558 -249.13125232 1587.34612595 -253.5546875 1583.98046875 C-256.28438339 1580.36763596 -257.03129417 1577.59549071 -256.6796875 1573.16796875 C-254.22322887 1561.98573736 -249.00903225 1551.83889533 -244.0546875 1541.60546875 C-243.23278299 1539.89434172 -242.41133433 1538.18299565 -241.59033203 1536.47143555 C-239.99467274 1533.15019066 -238.39285327 1529.83203543 -236.78515625 1526.51660156 C-235.11981977 1523.0821676 -233.47337991 1519.63924282 -231.8359375 1516.19140625 C-225.55203294 1503.11384471 -218.07825275 1490.73911956 -210.58251953 1478.33300781 C-208.8951313 1475.52632305 -207.23164069 1472.70789665 -205.58203125 1469.87890625 C-197.5801455 1456.20867752 -188.70565327 1443.17867169 -179.6796875 1430.16796875 C-179.12780762 1429.3672998 -178.57592773 1428.56663086 -178.00732422 1427.74169922 C-166.04770594 1410.4000605 -153.58400469 1392.69055628 -139.2421875 1377.23046875 C-134.51312452 1372.03904455 -130.0889661 1366.63147278 -125.6796875 1361.16796875 C-122.69811483 1357.48580796 -119.69320308 1353.82401244 -116.6796875 1350.16796875 C-115.57851341 1348.80651482 -115.57851341 1348.80651482 -114.45509338 1347.41755676 C-104.40198386 1335.30822947 -93.14699109 1324.34126243 -82.01686549 1313.23649573 C-79.05350794 1310.27827009 -76.09511047 1307.31508997 -73.13587952 1304.35273743 C-68.17286409 1299.38610471 -63.20569535 1294.42365526 -58.23608398 1289.46362305 C-52.51666389 1283.7551012 -46.80450774 1278.03938673 -41.09603399 1272.31992024 C-36.16178226 1267.376553 -31.22359463 1262.43714294 -26.28217608 1257.50093967 C-23.34508381 1254.56694145 -20.4093022 1251.63166596 -17.47709465 1248.69278526 C-14.72116489 1245.93101946 -11.96027644 1243.17430322 -9.19570732 1240.42118645 C-8.1907428 1239.41883463 -7.18741671 1238.41483655 -6.18599319 1237.40894699 C0.32302117 1230.87361631 7.0927299 1224.89599912 14.3203125 1219.16796875 C22.54298789 1212.47816281 30.25896454 1205.40912795 37.7578125 1197.91796875 C38.50297119 1197.17361572 39.24812988 1196.4292627 40.01586914 1195.66235352 C44.64450743 1190.98696655 49.03798135 1186.16092011 53.3203125 1181.16796875 C57.64092942 1176.23444471 62.02268138 1171.42062028 66.72436523 1166.84863281 C78.37027053 1155.77324469 78.37027053 1155.77324469 86.3203125 1142.16796875 C86.02226243 1139.97049744 86.02226243 1139.97049744 85.3203125 1138.16796875 C75.7642078 1142.50269666 68.36577928 1147.79476883 60.4765625 1154.6328125 C53.51594185 1160.63269037 46.33951395 1166.1971824 38.91259766 1171.61035156 C32.63931339 1176.18381827 26.43207805 1180.8366911 20.2578125 1185.54296875 C19.41412109 1186.18451904 18.57042969 1186.82606934 17.70117188 1187.48706055 C9.5646868 1193.6976223 1.4616511 1199.88675966 -5.9296875 1206.98046875 C-10.86947275 1211.63037262 -16.003369 1215.88745311 -21.37792969 1220.02270508 C-25.59507535 1223.27881243 -29.65902068 1226.67283525 -33.6796875 1230.16796875 C-38.21560757 1234.1028873 -42.81628841 1237.91662171 -47.5546875 1241.60546875 C-59.6697821 1251.0431377 -71.47847042 1260.65441165 -82.6796875 1271.16796875 C-89.21703653 1277.26864247 -95.8319638 1283.19109502 -102.7890625 1288.81640625 C-111.32607325 1295.76137986 -119.58358704 1302.98209739 -127.59033203 1310.53271484 C-128.6939165 1311.57292314 -128.6939165 1311.57292314 -129.81979561 1312.63414574 C-137.83462273 1320.21873419 -145.67197519 1327.97741962 -153.484375 1335.76953125 C-154.61536306 1336.89627825 -154.61536306 1336.89627825 -155.76919937 1338.04578781 C-159.74623932 1342.00802463 -163.72054521 1345.97297815 -167.69238281 1349.94042969 C-171.74981787 1353.99235318 -175.81648407 1358.03487997 -179.88529778 1362.0753727 C-183.05970741 1365.23102803 -186.22726226 1368.39349881 -189.39307022 1371.55778122 C-190.88863387 1373.05035562 -192.38665228 1374.54047519 -193.8873558 1376.02788162 C-201.90933141 1383.98371878 -209.49230292 1391.98741102 -216.28689575 1401.02670288 C-218.85612909 1404.39960192 -221.549164 1407.63497822 -224.3046875 1410.85546875 C-224.78682268 1411.42040228 -225.26895786 1411.98533581 -225.7657032 1412.56738853 C-226.19235708 1413.06722063 -226.61901096 1413.56705273 -227.05859375 1414.08203125 C-230.24699352 1417.82144055 -233.34883035 1421.62961197 -236.4453125 1425.4453125 C-237.95685981 1427.28718047 -239.48884554 1429.11243302 -241.0390625 1430.921875 C-247.56292201 1438.55728383 -253.33834169 1446.56762226 -259.04833984 1454.8203125 C-260.74216592 1457.25788082 -262.45287589 1459.68282307 -264.16796875 1462.10546875 C-275.63558891 1478.32378063 -286.28243025 1494.77141015 -295.96972656 1512.1171875 C-297.49944511 1514.84639409 -299.04347072 1517.56702853 -300.59214783 1520.2855072 C-309.15701843 1535.34613806 -316.71923177 1550.49851359 -323.50976562 1566.45898438 C-334.60175803 1592.14277982 -334.60175803 1592.14277982 -347.6796875 1598.16796875 C-353.104978 1599.94666022 -358.25590135 1600.67063035 -363.93359375 1601.1328125 C-364.81937607 1601.21070007 -365.70515839 1601.28858765 -366.61778259 1601.36883545 C-369.49208968 1601.62050354 -372.36709238 1601.86298546 -375.2421875 1602.10546875 C-379.23332356 1602.4515761 -383.22407123 1602.80207301 -387.21484375 1603.15234375 C-388.20211456 1603.23832321 -389.18938538 1603.32430267 -390.20657349 1603.41288757 C-398.54058097 1604.1428575 -406.8594848 1604.98306127 -415.1796875 1605.85546875 C-423.8315271 1606.75724397 -432.41871747 1607.39929527 -441.11108398 1607.67993164 C-449.74880881 1608.05174533 -458.25730541 1609.45848144 -466.77587891 1610.88452148 C-475.79937747 1612.31775664 -485.73168906 1613.59587013 -493.6796875 1608.16796875 C-498.21854517 1604.00734922 -499.34053446 1599.13107728 -499.6796875 1593.16796875 C-498.36375302 1585.1230662 -495.50076002 1577.49639895 -492.4296875 1569.98046875 C-492.00421631 1568.92947998 -491.57874512 1567.87849121 -491.14038086 1566.7956543 C-476.79145433 1531.83925379 -460.52039918 1497.60408029 -439.15673828 1466.35205078 C-437.39103715 1463.74114792 -435.65808069 1461.10974395 -433.92578125 1458.4765625 C-426.63396058 1447.40979208 -419.21052099 1436.54519422 -411.11962891 1426.04785156 C-409.10025818 1423.41150796 -407.1199713 1420.74668597 -405.13720703 1418.08276367 C-396.84399694 1406.95366468 -388.51793438 1395.99200279 -379.07421875 1385.8046875 C-375.91512 1382.32607142 -372.97177912 1378.6940784 -370.015625 1375.04296875 C-349.51012678 1349.80543248 -349.51012678 1349.80543248 -339.3503418 1341.63574219 C-337.61421391 1340.11044614 -336.1897973 1338.50673803 -334.703125 1336.73828125 C-329.7630244 1331.02947529 -324.44815912 1325.69530916 -319.1171875 1320.35546875 C-318.58434143 1319.82095093 -318.05149536 1319.28643311 -317.50250244 1318.73571777 C-310.6233815 1311.85530653 -303.67644658 1305.32361759 -295.84375 1299.53125 C-286.95427534 1292.89158066 -278.83746922 1285.43837391 -271.08203125 1277.51953125 C-266.88144838 1273.40774119 -262.27271875 1269.82731562 -257.6796875 1266.16796875 C-256.4594199 1265.1711257 -255.24075894 1264.1723137 -254.0234375 1263.171875 C-244.40872253 1255.2789654 -234.61074954 1247.65784014 -224.6796875 1240.16796875 C-223.89045898 1239.57226074 -223.10123047 1238.97655273 -222.28808594 1238.36279297 C-210.92915174 1229.79737196 -199.50320933 1221.32509515 -188.03857422 1212.90185547 C-184.08289129 1209.99425247 -180.13151761 1207.08080481 -176.1796875 1204.16796875 C-174.59637462 1203.00127433 -173.01304129 1201.83460765 -171.4296875 1200.66796875 C-170.6459375 1200.09046875 -169.8621875 1199.51296875 -169.0546875 1198.91796875 C-166.6796875 1197.16796875 -164.3046875 1195.41796875 -161.9296875 1193.66796875 C-161.1456958 1193.09022705 -160.3617041 1192.51248535 -159.55395508 1191.91723633 C-157.97330864 1190.75267779 -156.39241733 1189.58845155 -154.8112793 1188.42456055 C-150.80974525 1185.4783399 -146.81286141 1182.52615519 -142.82421875 1179.5625 C-134.19643432 1173.16079178 -125.49923832 1166.90704544 -116.6171875 1160.86328125 C-112.56008119 1158.09872223 -108.55660036 1155.26158148 -104.5546875 1152.41796875 C-97.18238751 1147.18881888 -89.7255992 1142.09043344 -82.2487793 1137.01220703 C-75.5896336 1132.48419414 -68.96969116 1127.90310816 -62.3671875 1123.29296875 C-54.28235203 1117.64937165 -46.15415262 1112.07439844 -37.9921875 1106.54296875 C-27.96497176 1099.74484332 -18.01345176 1092.84794324 -8.10791016 1085.87402344 C-5.61881643 1084.1252011 -3.12465897 1082.38383537 -0.62890625 1080.64453125 C16.80457516 1068.49204387 33.94691136 1056.03599578 50.80566406 1043.09619141 C53.1796124 1041.27585704 55.55755445 1039.46092089 57.9375 1037.6484375 C66.22159984 1031.33700625 74.45024239 1024.96116642 82.62304688 1018.50634766 C84.33728519 1017.15458494 86.05478679 1015.80708472 87.7734375 1014.4609375 C94.47660715 1009.20921196 101.14256689 1003.91449668 107.78051758 998.58056641 C111.79338125 995.3646463 115.8518815 992.21786538 119.9453125 989.10546875 C128.30089159 982.72384906 136.35056859 976.00838584 143.9921875 968.78466797 C149.95487865 963.14852271 156.15133169 958.05823562 162.79394531 953.23486328 C175.73249027 943.68136594 186.85043533 931.75201526 198.1328125 920.35546875 C200.82380136 917.6376052 203.51830033 914.9232889 206.21484375 912.2109375 C207.1088665 911.30446724 207.1088665 911.30446724 208.02095032 910.37968445 C211.71488977 906.66463732 215.5461181 903.17438971 219.50978088 899.74919128 C221.6835879 897.85070323 223.75065729 895.8669862 225.79296875 893.828125 C226.54771484 893.07466797 227.30246094 892.32121094 228.08007812 891.54492188 C228.83998047 890.78115234 229.59988281 890.01738281 230.3828125 889.23046875 C231.14658203 888.47056641 231.91035156 887.71066406 232.69726562 886.92773438 C236.17414299 883.44490855 239.56680602 879.94072681 242.76953125 876.203125 C246.92850166 871.37121297 251.51272066 866.99451996 256.0703125 862.54296875 C263.87322092 854.83513987 270.78601026 846.95087244 277.3203125 838.16796875 C278.76689761 836.36680327 280.22497436 834.57479683 281.6953125 832.79296875 C282.42105469 831.90867187 283.14679688 831.024375 283.89453125 830.11328125 C285.17748681 828.55555421 286.46095182 826.99823994 287.74853516 825.44433594 C296.0731465 815.38886481 303.95808875 805.07796598 311.61914062 794.50878906 C313.22311698 792.30171023 314.8398365 790.10467318 316.4609375 787.91015625 C325.38125719 775.77750971 333.71281102 763.25923812 341.99755859 750.68896484 C343.54058384 748.34795449 345.08776719 746.00978977 346.63916016 743.67431641 C358.54849442 725.80102061 358.54849442 725.80102061 369.24707031 707.19091797 C370.43173134 704.95795589 371.63815036 702.73734706 372.84375 700.515625 C407.02825705 636.96098068 430.74801925 568.77926933 438.66307068 496.92921448 C439.12607889 492.76239835 439.65233638 488.60935629 440.23046875 484.45703125 C442.8039455 465.94282049 443.11645694 448.78811913 439.87255859 430.36083984 C439.34205882 427.29369749 438.84065872 424.22267688 438.34690857 421.14942932 C428.57193606 360.38779885 406.40655601 308.95442575 363.3203125 264.16796875 C362.7722998 263.59804199 362.22428711 263.02811523 361.65966797 262.44091797 C355.08628234 255.64737987 348.43952977 249.15688019 341.00390625 243.296875 C338.18321775 241.0592109 335.47995584 238.71167238 332.7578125 236.35546875 C312.4968119 219.48433955 288.3170938 206.84588181 265.3203125 194.16796875 C264.42570312 193.67329102 263.53109375 193.17861328 262.609375 192.66894531 C195.84898703 156.03393769 114.98274945 130.12950752 38.8203125 124.765625 C33.89593961 124.39732644 29.11794098 123.62122955 24.2734375 122.6953125 C15.45521602 121.03429309 6.65975632 120.37815298 -2.2875061 119.83074951 C-15.72868527 119.00265899 -29.06150037 118.03923145 -42.35546875 115.81640625 C-52.07289235 114.2585887 -61.83598308 114.01880397 -71.65820312 114.02270508 C-72.89579376 114.01934647 -74.1333844 114.01598785 -75.40847778 114.01252747 C-78.76852605 114.00471649 -82.12851245 114.00135342 -85.48856544 114.00071168 C-87.60008119 113.9999952 -89.71159068 113.99784965 -91.82310486 113.99521446 C-99.22484745 113.98599082 -106.62657217 113.98187552 -114.02832031 113.98266602 C-120.86964629 113.98326487 -127.71089294 113.97274314 -134.55219889 113.95692235 C-140.47202875 113.94373264 -146.39183306 113.9384869 -152.31167746 113.93912143 C-155.82661332 113.93937323 -159.34147864 113.936702 -162.85639954 113.92594337 C-181.72120517 113.8722782 -199.95939793 114.7017466 -218.578125 117.734375 C-228.21271806 119.26765209 -237.76413149 119.73342694 -247.506073 120.02026367 C-261.73675623 120.45352323 -275.61271547 121.2013631 -289.64453125 123.70898438 C-297.36159894 125.06400475 -304.98454459 125.67701082 -312.8046875 126.10546875 C-328.64127958 127.01096473 -344.0632946 129.51347184 -359.6796875 132.16796875 C-361.79138487 132.5160369 -363.90334553 132.86251328 -366.015625 133.20703125 C-369.77759143 133.82217751 -373.53740748 134.44825976 -377.29541016 135.0871582 C-381.59514153 135.81710234 -385.89656224 136.53580802 -390.19921875 137.24829102 C-407.07646272 140.06967535 -423.79247826 143.38076763 -440.4921875 147.10546875 C-441.7407251 147.38220428 -442.9892627 147.65893982 -444.27563477 147.94406128 C-485.93261202 157.19391289 -527.32791578 167.57579435 -568.30804443 179.48028564 C-570.60342502 180.14585563 -572.90036389 180.80575986 -575.19775391 181.46435547 C-601.8028899 189.1162163 -627.75216852 198.52026462 -653.72155762 208.08209229 C-657.37442594 209.42299478 -661.03256922 210.74905955 -664.69099426 212.07470703 C-698.24145214 224.25226413 -730.81226574 238.63312317 -763.328125 253.31640625 C-770.32030714 256.46808095 -777.35536647 259.51683802 -784.39746094 262.55493164 C-792.1490373 265.90985473 -799.83745323 269.39633432 -807.50170898 272.94604492 C-814.37911983 276.11000423 -819.96316027 278.47662984 -827.6796875 278.16796875 C-827.05271494 272.73420658 -822.67778548 269.03512482 -818.76171875 265.6328125 C-817.67797631 264.78253007 -816.58776998 263.94043996 -815.4921875 263.10546875 C-814.89124268 262.64140625 -814.29029785 262.17734375 -813.67114258 261.69921875 C-796.22001012 248.32201313 -778.28717956 236.08776913 -758.984375 225.546875 C-755.15731072 223.44949534 -751.40725012 221.24900799 -747.6796875 218.98046875 C-737.54037361 212.82535481 -727.24162418 206.94345813 -716.95166016 201.04492188 C-714.8744269 199.8533259 -712.79843097 198.65956832 -710.72412109 197.46289062 C-695.31809094 188.57695548 -679.63584918 180.28124236 -663.77972412 172.23425293 C-661.58874301 171.12179209 -659.39908208 170.00675953 -657.20947266 168.89160156 C-625.56950403 152.79555571 -593.59645688 138.03980573 -560.60559082 124.93432617 C-557.47934075 123.69032554 -554.35702123 122.43661436 -551.234375 121.18359375 C-547.52816297 119.69663058 -543.82142903 118.2111107 -540.11083984 116.73510742 C-534.41929433 114.47043826 -528.73246278 112.19738233 -523.06906128 109.86305237 C-503.73700422 101.8975561 -484.17621894 94.61036869 -464.50920486 87.52013397 C-462.5263432 86.80528239 -460.54379332 86.08957087 -458.56124878 85.37384033 C-433.53782045 76.34782812 -408.48922255 67.89800865 -382.8671875 60.73046875 C-381.72069733 60.40781036 -380.57420715 60.08515198 -379.39297485 59.75271606 C-361.30637561 54.66294495 -343.18128386 49.76229598 -324.94555664 45.23413086 C-321.84130157 44.46269972 -318.74311438 43.66991579 -315.64624023 42.86938477 C-297.3264757 38.1656341 -278.86171634 34.17586588 -260.3671875 30.23046875 C-259.13093943 29.96602715 -259.13093943 29.96602715 -257.86971664 29.69624329 C-232.93294044 24.3625997 -208.01005575 19.47598592 -182.77099609 15.77783203 C-176.7674621 14.89329549 -170.78662487 13.87444081 -164.8046875 12.85546875 C-161.4310733 12.28422872 -158.05606024 11.72265628 -154.6796875 11.16796875 C-153.66914307 10.99716797 -152.65859863 10.82636719 -151.61743164 10.65039062 C-144.03356581 9.41368765 -136.53434019 8.73134738 -128.8671875 8.29296875 C-120.15819444 7.74634046 -111.56841882 6.9363524 -102.93017578 5.7019043 C-84.55591684 3.08606624 -66.22788628 2.34557875 -47.6875 1.76367188 C-46.59575974 1.72932541 -45.50401947 1.69497894 -44.37919617 1.65959167 C-42.34074277 1.59735323 -40.30218022 1.5385395 -38.26350403 1.48408508 C-33.32411629 1.34076416 -28.42572936 1.07941568 -23.50219727 0.65380859 C-15.66801403 0.02318841 -7.85299006 0.00479908 0 0 Z " fill="#38bdf8" transform="translate(1585.6796875,363.83203125)"/>
<path d="M0 0 C2.88187736 0.00012238 5.76370733 -0.00855165 8.64557099 -0.01677752 C15.4962237 -0.03586701 22.34675481 -0.03895631 29.1974268 -0.03213692 C35.35027154 -0.02629793 41.5026772 -0.04012107 47.65543461 -0.07315254 C82.52584464 -0.25627194 116.80735603 0.3427738 151.48109341 4.61299706 C158.78982833 5.50738439 166.0885396 6.08514099 173.43912601 6.53133965 C182.1876823 7.13561083 190.68877734 8.32762925 199.30753422 9.94442558 C204.81557911 10.97715439 210.29339153 11.82091101 215.86051273 12.46200371 C277.5151653 19.57976942 338.61366849 41.53453182 393.75162601 69.46883965 C394.62496586 69.9056707 395.4983057 70.34250175 396.39811039 70.79257011 C406.71092883 75.96366398 416.34154678 81.79848922 425.75162601 88.46883965 C426.50766117 89.00170586 427.26369633 89.53457207 428.04264164 90.08358574 C438.61717349 97.57780356 448.49158164 105.39944324 457.75162601 114.46883965 C458.42193851 115.10048027 459.09225101 115.7321209 459.78287601 116.38290215 C464.00437881 120.4317071 467.5919751 124.91389003 471.24771976 129.4727459 C473.42020459 132.07227142 475.6593547 134.51850757 478.00089359 136.960783 C506.66472471 166.95824934 524.16674993 206.8193125 534.75162601 246.46883965 C535.06744633 247.62383965 535.38326664 248.77883965 535.70865726 249.96883965 C540.73404648 270.56550874 540.13438013 292.4286208 539.75162601 313.46883965 C539.72262211 315.24871269 539.72262211 315.24871269 539.69303226 317.06454277 C539.03456327 352.21516731 531.53312595 386.08746357 520.75162601 419.46883965 C520.23777348 421.06405449 520.23777348 421.06405449 519.71354008 422.6914959 C509.43056653 454.24000375 495.59966874 483.87017573 480.75162601 513.46883965 C480.42339848 514.12422722 480.09517094 514.77961479 479.75699711 515.45486259 C469.05969728 536.7915069 457.42218403 557.53963567 443.12198734 576.69344902 C442.5460181 577.46495293 441.97004887 578.23645683 441.37662601 579.03133965 C440.78712162 579.82089043 440.19761723 580.61044121 439.59024906 581.42391777 C434.38182256 588.46976711 429.51539389 595.72233797 424.68912601 603.03133965 C414.61298368 618.26727125 404.36034276 633.07989712 392.2443018 646.77889824 C389.68368729 649.67791257 387.15171221 652.60136685 384.62662601 655.53133965 C384.1263892 656.11101494 383.62615238 656.69069023 383.11075687 657.28793144 C379.84677925 661.10204767 376.76499392 665.01755297 373.75162601 669.03133965 C366.83076421 678.21995957 358.8685266 686.46303597 350.67301273 694.51693535 C348.86368094 696.35500495 347.17039667 698.24363352 345.48990726 700.1993084 C341.24526775 705.08354341 336.80641878 709.77182131 332.35709476 714.46883965 C328.04247955 719.04251043 323.87440856 723.72219835 319.75162601 728.46883965 C311.83282291 737.41886953 303.4392637 745.88767352 295.00162601 754.34383965 C294.45846745 754.88958641 293.91530888 755.43533318 293.35569096 755.99761772 C287.33386749 762.04202672 281.24736692 767.92967614 274.75162601 773.46883965 C272.91293453 775.12959324 271.07897031 776.79560872 269.25162601 778.46883965 C265.52391119 781.86974112 261.75974595 785.21560665 257.94303226 788.51571465 C255.72760483 790.4902489 253.57915103 792.52778184 251.42716312 794.57089043 C245.29857966 800.35719339 238.88146258 805.5401273 232.14298344 810.59872246 C223.04272631 817.45450311 214.23503358 824.71832986 206.29850101 832.9102459 C203.28255129 835.94904372 200.00759911 838.69263742 196.75162601 841.46883965 C196.26887211 841.88182304 195.7861182 842.29480644 195.28873539 842.72030449 C189.88138615 847.34255462 184.4638376 851.93925451 178.87662601 856.34383965 C174.71655359 859.63444356 170.73388071 863.09335532 166.75162601 866.59383965 C160.5196097 872.05471258 154.08247893 877.18911425 147.51310062 882.23690605 C142.53884613 886.06227779 137.65575226 889.97744133 132.81412601 893.96883965 C124.05286016 901.15709477 114.9132325 907.80401047 105.75162601 914.46883965 C102.56056001 916.79733277 99.3732661 919.13088495 96.18912601 921.46883965 C95.40521488 922.04408379 94.62130375 922.61932793 93.81363773 923.21200371 C88.31882486 927.26367716 82.92852413 931.4341137 77.56412601 935.65633965 C71.47738273 940.44038024 65.27842782 944.95257061 58.86466312 949.28597832 C46.03766437 957.97728013 33.71868185 967.38091559 21.58854008 977.01327324 C11.22609728 985.22444867 0.75148224 993.26005256 -9.91756344 1001.06869316 C-19.46362945 1008.06706075 -28.85659799 1015.26543864 -38.24837399 1022.46883965 C-39.22725582 1023.21955742 -39.22725582 1023.21955742 -40.22591305 1023.98544121 C-42.91045655 1026.04560377 -45.59232253 1028.10913329 -48.27181149 1030.1758709 C-50.3569472 1031.78213686 -52.444962 1033.38392804 -54.53743649 1034.9805584 C-61.55568122 1040.34177461 -68.44351321 1045.83842185 -75.24837399 1051.46883965 C-77.33674218 1053.19002222 -79.42600258 1054.910117 -81.51546383 1056.62997246 C-83.00612468 1057.85757551 -84.49603202 1059.08609411 -85.98519039 1060.31551933 C-89.92336366 1063.56532341 -93.88625526 1066.77914466 -97.87337399 1069.96883965 C-104.38158262 1075.27842842 -110.41961803 1081.09529012 -116.52815914 1086.85311699 C-121.97604362 1091.9700769 -127.50654548 1096.90054919 -133.37337399 1101.53133965 C-138.3781095 1105.58075528 -142.94714038 1109.98063074 -147.49837399 1114.53133965 C-148.15982418 1115.19206474 -148.82127438 1115.85278984 -149.50276852 1116.53353691 C-153.35318736 1120.42688826 -157.00688076 1124.44097675 -160.58724117 1128.58285332 C-163.03510873 1131.36206802 -165.61842381 1133.98785753 -168.24837399 1136.59383965 C-168.76746334 1137.1117205 -169.2865527 1137.62960136 -169.82137203 1138.16317558 C-172.48155618 1140.79636332 -175.17541456 1143.33491606 -178.06087399 1145.71883965 C-181.12796585 1148.26371682 -183.65365193 1151.10072047 -186.23274899 1154.13290215 C-188.67835435 1156.96715023 -191.20953111 1159.71849803 -193.74837399 1162.46883965 C-196.76233305 1165.73589853 -199.74445356 1169.01895318 -202.62337399 1172.40633965 C-205.77434694 1176.05722658 -209.18757757 1179.40282283 -212.62337399 1182.78133965 C-218.27591166 1188.35914232 -223.32895121 1194.23024204 -228.24837399 1200.46883965 C-229.68403395 1202.19953432 -231.12157706 1203.92866839 -232.56087399 1205.65633965 C-236.62467362 1210.62398437 -240.48667208 1215.7220695 -244.31844234 1220.86874199 C-247.87393068 1225.64374565 -251.46738454 1230.38760439 -255.08455563 1235.11605644 C-272.46899574 1257.84218897 -289.26538328 1280.90561942 -304.68245602 1305.02059746 C-306.21797459 1307.42131156 -307.7622193 1309.81624528 -309.30696774 1312.21102715 C-312.33884596 1316.93230527 -315.3121312 1321.6875452 -318.24837399 1326.46883965 C-318.9567944 1327.61981133 -318.9567944 1327.61981133 -319.67952633 1328.79403496 C-329.94384821 1345.64905786 -338.0817558 1363.5358133 -346.24837399 1381.46883965 C-346.53837276 1382.10531425 -346.82837154 1382.74178886 -347.12715816 1383.39755058 C-353.28539338 1396.93229027 -359.23925798 1410.54287302 -364.77718258 1424.34432793 C-373.59652887 1446.00230393 -373.59652887 1446.00230393 -384.29134274 1451.52352715 C-390.89342108 1454.20522241 -397.72860604 1454.5926168 -404.80086422 1454.62997246 C-405.52055386 1454.63493736 -406.24024349 1454.63990227 -406.98174191 1454.64501762 C-409.34016055 1454.65951008 -411.69851205 1454.66641802 -414.05696774 1454.67196465 C-414.8680052 1454.67479202 -415.67904266 1454.6776194 -416.51465702 1454.68053246 C-420.80325929 1454.69546945 -425.09182838 1454.70473466 -429.38045406 1454.70907402 C-433.79298784 1454.71456326 -438.20521378 1454.73861647 -442.61765099 1454.76704597 C-446.02786796 1454.78572749 -449.43801138 1454.79088079 -452.84827518 1454.7924099 C-454.47446603 1454.79542243 -456.10065602 1454.8034033 -457.72679615 1454.81659508 C-467.11782954 1454.88736797 -474.74209774 1454.84769098 -482.99837399 1449.78133965 C-491.54745721 1440.99478189 -490.65691162 1429.14943422 -490.53353024 1417.72665215 C-490.16227121 1404.22327113 -488.12030906 1390.82977624 -486.24837399 1377.46883965 C-486.09884274 1376.36379082 -485.94931149 1375.25874199 -485.79524899 1374.12020683 C-477.70965921 1314.76973187 -462.44046596 1257.40349422 -439.02645016 1202.301054 C-438.27504394 1200.53164207 -437.52822517 1198.76028418 -436.78157711 1196.98885918 C-424.9728985 1169.12345537 -410.92001202 1142.50097615 -395.18489742 1116.67001152 C-393.25385786 1113.47790478 -391.35949223 1110.26670017 -389.47493649 1107.04696465 C-381.62885993 1093.68729021 -373.19633153 1080.91707858 -364.23030758 1068.28622246 C-360.94614851 1063.61768394 -357.75894497 1058.88404856 -354.56087399 1054.15633965 C-344.5608749 1039.44808363 -334.24264437 1025.16305806 -322.89534664 1011.46298027 C-320.0546999 1008.02354911 -317.24700683 1004.55739671 -314.43587399 1001.09383965 C-313.88818356 1000.42111015 -313.34049313 999.74838066 -312.77620602 999.05526543 C-309.85823273 995.46849729 -306.97705364 991.8571359 -304.12337399 988.21883965 C-294.73598771 976.503584 -283.94066639 965.98548621 -273.35384274 955.3711834 C-272.60912527 954.62363855 -271.86440781 953.87609371 -271.09712315 953.105896 C-267.16088002 949.15477906 -263.22186166 945.2064551 -259.28035641 941.26058769 C-255.24957607 937.22431902 -251.22817102 933.17884348 -247.20887947 929.1311388 C-244.07809829 925.98158912 -240.94048809 922.83890808 -237.80107212 919.69796753 C-236.31687212 918.21077595 -234.83512998 916.72112662 -233.3560915 915.22880173 C-224.44805344 906.24642604 -215.35331578 898.07627207 -205.24837399 890.46883965 C-202.452513 888.20656866 -199.69453022 885.90121455 -196.93587399 883.59383965 C-184.85851072 873.59559295 -172.48379652 864.19177412 -159.48641109 855.4204998 C-153.70214339 851.50465126 -148.04560217 847.44295947 -142.43587399 843.28133965 C-141.64084469 842.69191582 -140.84581539 842.10249199 -140.0266943 841.49520683 C-138.48275503 840.34991025 -136.93896741 839.2044092 -135.39534664 838.0586834 C-125.39426753 830.65283541 -115.16853066 823.7037128 -104.67171383 817.0196209 C-102.02854763 815.32816495 -99.39806839 813.61793859 -96.76790524 811.90633965 C-63.98411117 790.66550121 -63.98411117 790.66550121 -45.24837399 792.46883965 C-40.98928351 793.65652376 -37.20150307 795.50642712 -33.24837399 797.46883965 C-30.36476524 798.82948518 -27.46633026 800.15555367 -24.56087399 801.46883965 C-23.80081051 801.81245537 -23.04074703 802.15607109 -22.25765133 802.51009941 C-7.46175206 809.04301014 6.82156146 811.66720735 22.98209476 811.70907402 C25.21816276 811.71869566 27.45327621 811.74973753 29.68912601 811.78133965 C42.23256506 811.87543538 54.53144692 810.66923526 66.00162601 805.15633965 C66.66726566 804.84857597 67.33290531 804.5408123 68.01871586 804.22372246 C69.93968152 803.32470496 71.84639935 802.4006422 73.75162601 801.46883965 C75.21729008 800.77467949 75.21729008 800.77467949 76.71256351 800.0664959 C99.71694879 788.42938018 116.23894299 767.52695388 124.75162601 743.46883965 C126.02662595 739.16571487 126.99644204 734.89119702 127.75162601 730.46883965 C127.88182133 729.7521209 128.01201664 729.03540215 128.14615726 728.29696465 C131.92981596 702.26539285 125.7165683 677.43181496 110.05045414 656.35873222 C93.49433544 634.65839093 70.79532419 623.90246496 43.9898088 619.75073457 C37.1001289 618.88299231 30.13190826 619.06319544 23.20108891 619.09652519 C21.40007664 619.09408994 19.59906575 619.09036357 17.79805851 619.08546257 C12.94976374 619.07613873 8.10167396 619.08541305 3.25339532 619.0987947 C-1.86939164 619.11023335 -6.9921703 619.10599145 -12.11496639 619.10404778 C-20.73165318 619.10316733 -29.34826095 619.11418154 -37.96492672 619.132658 C-47.83598785 619.15370719 -57.70693245 619.15735839 -67.57801145 619.15109605 C-77.1620975 619.14533335 -86.74614373 619.15113537 -96.33022404 619.16226959 C-100.36398802 619.16683711 -104.397727 619.16782428 -108.43149281 619.16568375 C-127.24091837 619.15982158 -146.0132925 619.23829384 -164.79354 620.37826347 C-166.10694079 620.45766765 -167.42034159 620.53707182 -168.7735424 620.61888218 C-185.1556226 621.73069343 -200.18864387 624.93766471 -215.24837399 631.46883965 C-215.94559566 631.76806328 -216.64281734 632.06728691 -217.36116695 632.37557793 C-244.49017193 644.16840278 -267.22875335 663.27394037 -288.68733883 683.29916191 C-292.53277507 686.86720879 -296.52208068 690.18057118 -300.65462399 693.41415215 C-307.71258894 699.00525089 -314.55328391 704.8807972 -321.18587399 710.96883965 C-346.02776016 733.44673988 -376.27640276 752.44130531 -409.20101643 759.78871727 C-411.27899647 760.2524898 -413.35461733 760.72693064 -415.4280405 761.21066856 C-442.01924101 767.25419405 -468.28389081 767.31759282 -495.44355655 767.21326923 C-501.72381433 767.19616378 -508.00396908 767.21513847 -514.28421688 767.23037529 C-524.79909279 767.25151648 -535.3138115 767.25367023 -545.82869625 767.23885918 C-556.60084447 767.22376758 -567.37294314 767.2156927 -578.1451025 767.22030449 C-578.81171084 767.22058434 -579.47831918 767.22086419 -580.16512778 767.22115251 C-591.31385656 767.22624763 -602.46257304 767.23959788 -613.61129123 767.25565171 C-621.05016065 767.26523971 -628.48889052 767.26247705 -635.92775285 767.24897623 C-640.55444292 767.24213009 -645.18110989 767.24320712 -649.80780315 767.24598312 C-651.93817361 767.24547517 -654.06854666 767.24155144 -656.19890308 767.2338028 C-679.7256094 766.16313631 -679.7256094 766.16313631 -700.24837399 775.46883965 C-704.75689662 780.93647346 -708.54503693 786.83131408 -712.38509274 792.7774334 C-728.69303485 817.40513895 -752.2388357 831.85021533 -780.86019039 838.03304863 C-798.07076514 841.44309418 -814.72630727 840.16027463 -831.24837399 834.46883965 C-831.92867672 834.23890312 -832.60897945 834.0089666 -833.30989742 833.7720623 C-859.99646472 824.53440439 -878.65425098 804.9256886 -891.56087399 780.40633965 C-902.88159937 756.63907087 -903.38603271 731.27561125 -894.96712399 706.58602715 C-884.68025743 679.21153225 -865.80054392 659.61636521 -839.25130367 647.56210136 C-834.66665724 645.59999935 -830.00641552 643.95658793 -825.24837399 642.46883965 C-824.5825732 642.25856133 -823.91677242 642.048283 -823.23079586 641.83163261 C-798.13952645 634.20644655 -773.51539253 638.99605591 -750.56087399 650.78133965 C-744.56983845 654.12483972 -739.38820651 657.93960377 -734.24837399 662.46883965 C-733.7377441 662.91388847 -733.22711422 663.3589373 -732.7010107 663.81747246 C-724.14833764 671.31090446 -716.90060801 679.2878964 -710.04915524 688.39071465 C-702.47988244 698.16604077 -695.39705985 702.63572758 -683.24837399 704.46883965 C-678.78900858 704.83691787 -674.33429477 704.97163805 -669.86189938 705.0833416 C-667.90901926 705.13963344 -667.90901926 705.13963344 -665.91668701 705.19706249 C-650.56838959 705.61528135 -635.21548286 705.63355498 -619.86256194 705.63609672 C-617.3893934 705.63682086 -614.91623001 705.63897974 -612.44306278 705.64159393 C-603.74705955 705.65075888 -595.05107134 705.6549394 -586.35506344 705.65414238 C-578.35474999 705.65354135 -570.35450389 705.66412139 -562.35420746 705.67988604 C-555.38844799 705.69310443 -548.42271019 705.6983205 -541.45693833 705.69768697 C-537.33891971 705.69743649 -533.22096148 705.7000311 -529.10295582 705.71086502 C-503.61021965 705.77329833 -478.08858754 705.41655028 -452.87337399 701.21883965 C-452.2202322 701.11312645 -451.56709042 701.00741325 -450.89415646 700.89849663 C-408.24270031 693.96658622 -376.95959694 676.49999842 -345.57088375 647.39999199 C-341.56578177 643.70615355 -337.39656681 640.26085213 -333.15853024 636.8399334 C-325.36162455 630.48728675 -317.75957763 623.92364705 -310.43587399 617.03133965 C-303.16667153 610.25843305 -295.24111515 604.3539181 -287.24837399 598.46883965 C-286.55582516 597.95675957 -285.86327633 597.44467949 -285.14974117 596.91708183 C-265.68470244 582.60590678 -245.24043706 570.16113214 -222.18587399 562.65633965 C-221.33654293 562.37814384 -220.48721188 562.09994804 -219.61214352 561.81332207 C-205.39560201 557.40772401 -191.60240108 555.99238495 -176.82649899 555.8164959 C-174.96273594 555.7846689 -173.098987 555.75200749 -171.23525143 555.71861076 C-164.90652913 555.61206635 -158.57758298 555.53944596 -152.24837399 555.46883965 C-149.94572053 555.44143249 -147.64306755 555.41398623 -145.340415 555.38650322 C-128.25972835 555.18862838 -111.17882099 555.06071067 -94.0973804 554.95217961 C-89.32171945 554.92176215 -84.54607623 554.88945052 -79.77043891 554.8555283 C-33.2086397 554.52482174 13.35100702 554.44778274 59.91377354 554.53208542 C67.65813716 554.54610021 75.40250312 554.55753216 83.14687183 554.56831237 C88.78823088 554.57621658 94.42958931 554.58455443 100.07094771 554.59290938 C101.48246002 554.59499447 102.89397236 554.59706454 104.30548471 554.59911962 C121.19127232 554.62375944 138.07693302 554.6595576 154.96263021 554.72077762 C166.38987215 554.7620591 177.81705895 554.78923977 189.24437094 554.80362046 C195.518614 554.81215381 201.79264853 554.82776381 208.06681156 554.86134911 C213.881403 554.8924561 219.69573544 554.90482703 225.51040697 554.90301239 C227.61803178 554.90566421 229.72566195 554.91509383 231.83321905 554.93219364 C244.13533477 555.02779523 254.96957588 554.20281065 266.75162601 550.46883965 C267.56019676 550.21382274 268.36876751 549.95880583 269.2018404 549.69606113 C282.35836484 545.21015709 292.77091087 538.02691865 302.75162601 528.46883965 C303.50186039 527.7933709 304.25209476 527.11790215 305.02506351 526.42196465 C320.8122838 511.68722571 329.80244858 490.83534585 335.75162601 470.46883965 C336.01975101 469.58067558 336.28787601 468.69251152 336.56412601 467.7774334 C341.56147027 447.82276015 336.09206263 424.99303247 326.04459476 407.4961834 C310.36035925 382.74000717 285.62914927 364.11472368 257.11881351 357.17977715 C252.97537214 356.30494381 248.98218329 355.64543278 244.75162601 355.46883965 C243.92791508 355.42887871 243.10420414 355.38891777 242.25553226 355.3477459 C227.94190411 354.99457945 214.70562197 358.63535817 201.13785648 362.65804863 C178.04346088 369.46231314 161.53021176 366.51328114 140.43912601 355.84383965 C138.974477 355.11825868 137.50921829 354.39390725 136.04337406 353.67074394 C128.64462424 350.00540029 121.32486547 346.21327098 114.06412601 342.28133965 C101.38236693 335.45391457 88.06011616 329.94178813 74.75162601 324.46883965 C74.08628849 324.19515556 73.42095097 323.92147148 72.7354517 323.63949394 C49.98246676 314.31788064 26.82335343 306.90982184 3.18967533 300.16738701 C0.81423848 299.4867793 -1.55854072 298.79768082 -3.93050289 298.10507011 C-48.42491042 285.12248172 -93.82645756 276.22942688 -140.02181149 272.0743084 C-144.40297919 271.67927488 -148.73673571 271.12829466 -153.09026241 270.50027275 C-161.37500786 269.36104769 -169.65723032 268.79914746 -178.00472164 268.36044121 C-178.77649722 268.31851662 -179.54827281 268.27659204 -180.34343553 268.23339701 C-196.84971657 267.34980117 -213.33119629 267.17127251 -229.85763788 267.20018864 C-233.81231778 267.20541624 -237.76699063 267.20051384 -241.7216711 267.19741631 C-248.3347562 267.19382954 -254.94779587 267.1984396 -261.56087399 267.20809746 C-269.13656853 267.21903539 -276.71215579 267.21539637 -284.28784788 267.20444465 C-290.89014599 267.19529404 -297.49241234 267.19412216 -304.09471476 267.19932199 C-307.99611486 267.20239138 -311.8974649 267.20299264 -315.7988615 267.19624901 C-335.88718956 267.16629561 -355.71147895 267.58645971 -375.56087399 270.96883965 C-382.72211339 272.18512638 -389.81379881 272.8602076 -397.06087399 273.34383965 C-409.24411501 274.18357459 -421.12820276 276.14856198 -433.14681149 278.2618084 C-438.11814769 279.13018413 -443.07215126 279.85426215 -448.08455563 280.43002129 C-506.04964054 287.19061435 -564.89002142 306.25532948 -618.98476315 327.57955742 C-621.24778449 328.46860806 -623.51380798 329.34950258 -625.78108883 330.22762871 C-660.51697941 343.68585943 -693.97332791 359.58646979 -726.82063961 377.16952324 C-728.5001745 378.06840545 -730.18127009 378.96437538 -731.86360836 379.8579998 C-744.75789468 386.71592206 -757.29624733 393.99296067 -769.63167477 401.8111248 C-772.21638112 403.44857173 -774.8079262 405.07470184 -777.40071774 406.6993084 C-798.72850108 420.11357064 -819.90439496 433.92387987 -840.15755367 448.92245293 C-842.3716024 450.55998033 -844.59439062 452.18510636 -846.81868649 453.8086834 C-866.99772434 468.56573963 -886.90649185 483.45822315 -905.24837399 500.46883965 C-910.28408188 505.09501708 -915.3681861 509.6054901 -920.68587399 513.90633965 C-925.43162018 517.74717661 -929.96364075 521.77190101 -934.44759274 525.91415215 C-936.63320253 527.90772091 -938.84101667 529.85669568 -941.07649899 531.7930584 C-943.87536392 534.23230001 -946.60238965 536.72500347 -949.28353024 539.2930584 C-949.94804195 539.92921074 -950.61255367 540.56536308 -951.29720211 541.22079277 C-952.64754153 542.51874269 -953.99386179 543.82088612 -955.33626461 545.12704277 C-964.80026098 554.14956992 -964.80026098 554.14956992 -971.62337399 554.78133965 C-974.24837399 554.46883965 -974.24837399 554.46883965 -975.24837399 553.46883965 C-977.9983637 533.8751629 -957.98738567 511.3283275 -947.24837399 496.46883965 C-946.19327903 494.99907998 -945.13859327 493.52902647 -944.08431149 492.0586834 C-928.91973455 470.94644122 -913.46958573 450.0275187 -897.32967281 429.64779472 C-894.80867429 426.46419289 -892.31688351 423.26098896 -889.84993649 420.0352459 C-880.40789948 407.71265296 -870.37504904 396.39816716 -859.28157711 385.53817558 C-856.41676227 382.7184891 -853.68143012 379.85082403 -851.06941891 376.7942791 C-847.1452917 372.28828809 -842.98176088 368.05796985 -838.75228024 363.8399334 C-837.95990459 363.04660103 -837.16752895 362.25326866 -836.35114193 361.43589592 C-834.68587116 359.76994884 -833.0193537 358.10524708 -831.35164547 356.44174004 C-828.81802777 353.9134783 -826.28979231 351.37992304 -823.76204586 348.84579277 C-822.13411116 347.21851895 -820.50586624 345.59155539 -818.87728024 343.9649334 C-818.13120007 343.21682899 -817.3851199 342.46872459 -816.61643124 341.69795036 C-812.53551182 337.63495773 -808.35752293 333.75699973 -803.99643612 329.99674797 C-801.87314858 328.14087074 -799.88238354 326.18519572 -797.91634274 324.16415215 C-797.18641109 323.42044365 -796.45647945 322.67673515 -795.70442867 321.91049004 C-794.95580563 321.14599541 -794.20718258 320.38150078 -793.43587399 319.59383965 C-786.98815601 313.08505876 -780.53766253 307.03060894 -773.24837399 301.46883965 C-770.90999163 299.66279463 -768.57800055 297.84866117 -766.24837399 296.03133965 C-765.65121578 295.56671318 -765.05405758 295.10208672 -764.43880367 294.62338066 C-760.73099025 291.71263551 -757.20628804 288.67758048 -753.74837399 285.46883965 C-749.26623392 281.31386308 -744.60873409 277.51755252 -739.78255367 273.7786541 C-735.29820307 270.30418892 -730.88777004 266.74982649 -726.49837399 263.15633965 C-706.4866168 246.83338563 -685.84973362 231.4371598 -664.45931149 216.96981621 C-661.77894019 215.15014718 -659.11441417 213.30832763 -656.4510107 211.46395683 C-638.99178353 199.38547314 -621.31134633 187.62586043 -603.24837399 176.46883965 C-602.19633785 175.81770195 -601.14430172 175.16656425 -600.0603857 174.49569511 C-578.3688747 161.09068638 -556.1790706 148.892463 -533.49397945 137.2564373 C-527.2186659 134.03754126 -520.95800358 130.79877072 -514.7478857 127.45516777 C-490.47451182 114.42699389 -464.95801404 103.9347112 -439.52950191 93.41409111 C-437.35534615 92.51316666 -435.18288549 91.6082974 -433.0110693 90.7017498 C-412.71332239 82.23502436 -392.20150788 74.50177266 -371.44283199 67.2397747 C-369.34269984 66.50197726 -367.24575439 65.75584525 -365.14974117 65.0064373 C-334.39457897 54.03457115 -302.78998923 45.8251393 -271.24837399 37.46883965 C-270.15994198 37.17928398 -269.07150997 36.88972832 -267.95009518 36.59139824 C-241.82262191 29.64474903 -215.64752266 23.92355492 -189.01009274 19.30038261 C-184.6988331 18.55159968 -180.39524153 17.76697783 -176.09212399 16.9727459 C-163.22778325 14.62786836 -150.42075002 12.82093162 -137.40389156 11.56576347 C-130.01117158 10.83538083 -122.79482126 9.7212617 -115.49837399 8.34383965 C-104.64228748 6.34587145 -93.90244536 5.98444329 -82.9041357 5.75692558 C-70.36433693 5.49701982 -57.9281726 4.76012299 -45.53884029 2.71920586 C-30.35973726 0.27052208 -15.34868597 -0.00868935 0 0 Z " fill="#38bdf8" transform="translate(1407.2483739852905,516.5311603546143)"/>
<path d="M0 0 C1.92093399 -0.00806163 3.84185826 -0.01908026 5.76275635 -0.0333252 C17.81729273 -0.11326751 29.49112172 0.44537498 41.42324829 2.17523193 C42.39552368 2.31163086 43.36779907 2.44802979 44.36953735 2.58856201 C46.03473102 2.82628907 47.69933713 3.06818579 49.3631897 3.31512451 C57.15779959 4.4678265 64.89377984 5.32313335 72.76016235 5.79119873 C150.63533992 10.44590009 231.19635108 36.05460245 300.42324829 71.17523193 C301.12433716 71.53004639 301.82542603 71.88486084 302.54776001 72.25042725 C320.24805553 81.36610253 336.40542856 94.67133634 351.05996704 108.02679443 C353.13839734 109.91627652 355.23919912 111.77203958 357.36074829 113.61273193 C372.14834744 126.54439758 372.14834744 126.54439758 377.62637329 133.06585693 C379.75793563 135.56812577 381.99642458 137.9565021 384.23574829 140.36273193 C421.29452434 181.18353525 436.33394627 239.25863505 434.61856079 293.56488037 C434.07757789 303.56494932 432.29879025 313.35361534 430.42324829 323.17523193 C430.10178833 324.92537598 430.10178833 324.92537598 429.77383423 326.71087646 C424.4888632 355.2627978 415.5331107 381.66831729 404.22067261 408.29718018 C403.45766662 410.09417169 402.69890139 411.89296206 401.94033813 413.6918335 C384.25559605 455.47211315 360.06865525 494.52297409 333.42324829 531.17523193 C332.89714966 531.90258545 332.37105103 532.62993896 331.82901001 533.3793335 C324.20218206 543.91109533 316.33827762 554.17497341 308.05410767 564.19720459 C305.2211879 567.63318004 302.41742964 571.09282023 299.61074829 574.55023193 C299.06442749 575.2215918 298.51810669 575.89295166 297.95523071 576.58465576 C295.00014528 580.21859387 292.07467132 583.87318097 289.17324829 587.55023193 C285.13160434 592.61711471 280.79842135 597.39619675 276.42324829 602.17523193 C271.05304718 608.04801686 265.87863361 614.0182342 260.86074829 620.19476318 C253.4049043 629.31144422 245.77675684 638.06597819 237.30996704 646.26116943 C235.28490007 648.25442896 233.42793123 650.32365005 231.59536743 652.49432373 C225.9674828 658.95109319 219.83435444 664.92863727 213.78262329 670.98382568 C212.45127399 672.31839555 211.11999682 673.65303736 209.78878784 674.98774719 C207.00676568 677.77573144 204.22271062 680.56166732 201.43740845 683.34637451 C197.89448729 686.88919419 194.35849257 690.43883977 190.82424545 693.99030972 C188.07880097 696.74695223 185.32874261 699.49895717 182.57743073 702.24974251 C181.27307201 703.55526967 179.97030699 704.86239138 178.66927338 706.17123222 C171.23366223 713.64727908 163.73513063 720.66851501 155.42324829 727.17523193 C149.95427676 731.59902317 144.53356563 736.06400108 139.22280884 740.67645264 C118.2737903 758.85159489 118.2737903 758.85159489 106.52090454 758.60882568 C94.57497064 756.93669622 86.77999581 743.83466308 79.98233032 734.92718506 C78.48865891 732.98801243 76.96020205 731.08033585 75.42324829 729.17523193 C74.70942993 728.28207275 73.99561157 727.38891357 73.26016235 726.46868896 C62.70130138 713.57463635 50.51508982 702.12060666 38.67324829 690.42523193 C34.8009544 686.60061085 30.93225684 682.77247824 27.0719223 678.93578339 C25.54964575 677.42622606 24.02137439 675.92293972 22.49264526 674.41992188 C3.8195751 655.94951962 3.8195751 655.94951962 1.92324829 642.67523193 C3.95216224 628.47283432 14.63208183 619.79797628 24.36856079 610.16741943 C25.58973099 608.95192917 25.58973099 608.95192917 26.83557129 607.71188354 C29.40401108 605.15551821 31.97569462 602.60245686 34.54824829 600.05023193 C37.94965228 596.6755956 41.34760766 593.29754003 44.74356079 589.91741943 C45.89382248 588.77960526 45.89382248 588.77960526 47.06732178 587.61880493 C51.20776227 583.49706876 55.17065227 579.288629 58.96902466 574.84867859 C60.80512754 572.7357847 62.77554253 570.79631465 64.79824829 568.86273193 C68.92482947 564.7921044 72.55188376 560.44955675 76.17324829 555.92913818 C78.34911546 553.26596744 80.60503038 550.71480746 82.92324829 548.17523193 C86.09157017 544.7033252 89.10106335 541.14923458 92.04824829 537.48773193 C95.10863184 533.70475782 98.26620144 530.21281838 101.75918579 526.83148193 C104.12289507 524.47886988 106.26862057 521.95949921 108.43887329 519.42913818 C109.85285891 517.82309546 111.30543665 516.25068685 112.78262329 514.70257568 C120.86905713 506.19746554 127.74941618 496.93075722 134.70303345 487.49017334 C136.97791314 484.42880388 139.32130558 481.42779154 141.67324829 478.42523193 C146.16923206 472.60559505 150.32752141 466.5951634 154.45840454 460.51507568 C157.05573872 456.69628774 159.70702092 452.91782942 162.36978149 449.14447021 C170.95082414 436.97385384 179.28357631 424.64531825 187.42324829 412.17523193 C187.99962036 411.29254639 188.57599243 410.40986084 189.16983032 409.50042725 C198.62092218 394.91462126 206.64538112 379.7062318 214.42324829 364.17523193 C214.95869263 363.12287354 215.49413696 362.07051514 216.04580688 360.98626709 C228.18956037 337.07860499 237.08669917 312.46587254 242.42324829 286.17523193 C242.78507202 284.46375977 242.78507202 284.46375977 243.15420532 282.7177124 C249.12714874 253.90681287 249.94485367 225.78102248 242.42324829 197.17523193 C242.18799438 196.23872803 241.95274048 195.30222412 241.71035767 194.33734131 C232.99725377 159.89297744 214.06348385 133.72596961 189.36074829 108.86273193 C187.9961145 107.48407959 187.9961145 107.48407959 186.60391235 106.07757568 C171.38597018 90.93077096 154.43582516 79.00919049 135.42324829 69.17523193 C134.63627563 68.76804932 133.84930298 68.3608667 133.03848267 67.94134521 C117.66764661 60.09724042 101.6451653 53.9986475 85.42324829 48.17523193 C84.26808716 47.75773682 83.11292603 47.3402417 81.92276001 46.91009521 C65.55140198 41.05339114 48.95541176 36.2532921 32.17324829 31.73773193 C31.22433716 31.48025177 30.27542603 31.22277161 29.29776001 30.95748901 C14.04103457 26.83692313 -1.09544461 23.72215947 -16.8309021 22.15008545 C-26.61369817 21.17089071 -36.09476429 19.60795371 -45.63925171 17.23773193 C-46.61974487 16.99691895 -47.60023804 16.75610596 -48.61044312 16.50799561 C-54.35176934 15.00815756 -59.49200353 13.27310741 -64.57675171 10.17523193 C-65.28793335 8.04656982 -65.28793335 8.04656982 -65.57675171 6.17523193 C-53.11696248 -5.31162665 -16.20960685 0.06407689 0 0 Z " fill="#38bdf8" transform="translate(2467.5767517089844,622.8247680664063)"/>
<path d="M0 0 C8.53928494 7.06486781 16.60810205 14.79432881 23.796875 23.23046875 C31.70480333 32.31539107 39.06826792 37.90030901 51.33062327 39.51256347 C54.61841158 39.72069399 57.88649807 39.80813651 61.18061829 39.84738159 C62.42711633 39.87597381 63.67361437 39.90456604 64.95788509 39.93402469 C69.05014493 40.01725874 73.14150974 40.06775536 77.234375 40.10546875 C77.92478621 40.11252659 78.61519742 40.11958443 79.32653019 40.12685615 C90.054675 40.23429618 100.78233864 40.24440308 111.51092708 40.23619342 C115.9876074 40.23388861 120.46428418 40.23744466 124.94096375 40.24017334 C133.69089018 40.24458508 142.44080796 40.24367273 151.19073471 40.2407607 C158.35923128 40.23847733 165.52772547 40.23820669 172.69622231 40.23928452 C174.24302962 40.23951436 174.24302962 40.23951436 175.82108558 40.23974886 C177.91872157 40.24006872 180.01635757 40.24039293 182.11399356 40.24072145 C201.74529768 40.24356574 221.37659711 40.24031148 241.00790045 40.23492108 C257.59470625 40.23050538 274.1815049 40.23123357 290.76831055 40.23583984 C433.62320568 40.33122119 433.62320568 40.33122119 633.11328125 37.6484375 C634.61533615 37.59478027 634.61533615 37.59478027 636.1477356 37.54003906 C652.24225466 36.88241539 663.9640572 32.47600177 675.75854492 21.28417969 C690.55374972 7.25436743 709.38998513 -2.6886395 730.18310547 -2.36303711 C747.87298531 -1.54259342 765.21254561 5.59570227 777.6796875 18.2578125 C791.12292474 33.24270538 795.09214989 51.85575662 794.109375 71.48046875 C792.80410666 86.60357782 786.35156266 99.73306001 775.234375 110.10546875 C756.44564414 124.97582439 735.5678689 129.30858344 711.96484375 126.87109375 C699.30468158 125.13744992 689.03139219 120.88549392 678.296875 114.10546875 C658.41580859 101.95542156 639.17414286 101.80314326 616.41033936 101.85150146 C614.02904644 101.84919338 611.64775424 101.84601453 609.26646352 101.84204698 C603.44200128 101.8346063 597.61759404 101.83636513 591.79313113 101.84214851 C584.80764076 101.84856106 577.82217094 101.84328198 570.83668157 101.83772468 C557.15354749 101.82722322 543.47043216 101.82809383 529.78729632 101.83388251 C517.81513779 101.83892225 505.8429861 101.84022299 493.87082672 101.83783722 C493.07534617 101.83768445 492.27986562 101.83753168 491.4602796 101.83737428 C488.23085643 101.83675156 485.00143327 101.83611476 481.77201011 101.83545475 C451.50893872 101.82934356 421.24587924 101.83487329 390.9828097 101.84564855 C364.11353342 101.85514267 337.24427611 101.85428664 310.375 101.84472656 C280.15970101 101.8340118 249.94441253 101.82977338 219.72911191 101.83595109 C216.50696135 101.83659249 213.28481078 101.83721817 210.06266022 101.83783722 C209.26933255 101.83799537 208.47600487 101.83815353 207.65863697 101.83831648 C195.69312438 101.84058879 183.72761939 101.83793586 171.76210785 101.83287811 C158.15618674 101.82715551 144.55028723 101.82859817 130.94436881 101.8394396 C124.00406515 101.84478772 117.06379654 101.84701898 110.12349319 101.8401413 C103.76787845 101.83417294 97.41233775 101.83747169 91.0567297 101.8480964 C88.76025263 101.8503266 86.46376928 101.84920269 84.16729626 101.84434482 C61.70381633 100.86260569 61.70381633 100.86260569 41.734375 109.359375 C37.41539009 113.85440549 34.72953356 119.49718532 31.75756836 124.91577148 C18.61092548 148.61795359 -2.73212415 166.05141787 -28.453125 174.48046875 C-39.57509231 177.50463186 -50.51668153 178.47168062 -62.015625 178.41796875 C-63.28615723 178.4123291 -64.55668945 178.40668945 -65.86572266 178.40087891 C-94.37967071 178.03368411 -115.04132455 168.04492947 -135.11181641 147.83251953 C-152.73619883 129.42760644 -161.24329718 103.80531296 -161.015625 78.66796875 C-161.00813232 77.57049316 -161.00063965 76.47301758 -160.99291992 75.34228516 C-160.61490665 46.90470595 -149.7232744 25.22356562 -129.484375 5.515625 C-93.24331226 -26.61186883 -38.31885273 -30.3641799 0 0 Z " fill="#38bdf8" transform="translate(920.765625,906.89453125)"/>
<path d="M0 0 C13.86180338 13.35034827 22.10530973 32.05881526 22.83789062 51.28295898 C23.11732309 68.91845635 16.35834263 84.49517932 4.0859375 97.19140625 C-10.04169574 110.17299255 -29.5078708 115.34641931 -48.3203125 114.8671875 C-68.34237259 113.96157708 -82.67795497 103.1488637 -96.75927734 90.04614258 C-115.05845148 73.06860525 -134.41269073 71.86189813 -158.49023438 72.54052734 C-191.72431213 73.89526237 -223.42244934 83.48518816 -250.5625 102.625 C-251.87992174 103.54077701 -253.19765029 104.45611274 -254.515625 105.37109375 C-272.50524913 117.91270376 -290.04631551 130.7874456 -305.4440918 146.47216797 C-308.67930114 149.76673395 -312.00123218 152.86778442 -315.515625 155.859375 C-318.01964849 158.0193342 -320.44247698 160.25987993 -322.875 162.5 C-327.41344141 166.64352179 -332.09675757 170.5481961 -336.875 174.41015625 C-340.37877992 177.29771906 -343.74268612 180.32074232 -347.09765625 183.37890625 C-348.74142647 184.87679512 -350.39515156 186.36383167 -352.05859375 187.83984375 C-356.34713444 191.64667628 -360.48916723 195.52546003 -364.5 199.625 C-368.66678874 203.83722101 -373.04212852 207.6008106 -377.671875 211.29296875 C-380.17846606 213.31517802 -382.61888685 215.39508316 -385.04760742 217.50952148 C-412.38895839 241.17771154 -441.96070973 256.63999098 -476.5625 266.625 C-493.4326659 271.59504887 -501.64395587 279.06804584 -510.83227539 293.85424805 C-522.74354814 312.93806984 -539.94324463 327.90266759 -562.1875 333.4375 C-588.76836438 338.79781666 -619.22459657 337.46432124 -642.5625 322.625 C-663.93220429 307.15886869 -680.43000784 286.01400792 -686.14453125 259.97265625 C-689.60683293 232.24188482 -682.73930092 208.19467392 -665.99609375 186.2109375 C-649.91839559 165.84230205 -627.78258202 155.77934127 -602.4375 152.25 C-577.80511664 149.70351106 -549.18621225 154.96472484 -529.5625 170.625 C-523.47484208 175.97654655 -517.96820379 181.9232408 -512.6875 188.0625 C-507.22329827 194.41061672 -502.03256055 199.05748879 -493.5625 200.625 C-462.10396372 202.21830631 -432.39001493 176.20167761 -410.5625 156.625 C-409.68795166 155.84092773 -408.81340332 155.05685547 -407.91235352 154.24902344 C-399.78683369 146.90922345 -392.07392285 139.202041 -384.41430664 131.38085938 C-377.46630588 124.29687524 -370.34250843 117.80834494 -362.5625 111.625 C-360.01708005 109.48624478 -357.50559928 107.31018398 -355 105.125 C-354.36505615 104.57312012 -353.7301123 104.02124023 -353.07592773 103.45263672 C-348.58818869 99.54298895 -344.14760329 95.58391526 -339.73828125 91.5859375 C-337.78307391 89.82379373 -335.80491581 88.09476943 -333.8125 86.375 C-331.31965245 84.21619402 -328.89701156 82.00275372 -326.515625 79.72265625 C-275.02160174 30.58179443 -211.73037211 9.15762118 -141.44750977 9.18920898 C-137.73946684 9.18562541 -134.03213389 9.1582889 -130.32421875 9.12890625 C-128.6645533 9.14118004 -128.6645533 9.14118004 -126.97135925 9.15370178 C-115.92206115 9.04905147 -106.5666714 5.89706192 -97.4375 -0.25 C-96.0666943 -1.137164 -94.69560128 -2.02388419 -93.32421875 -2.91015625 C-92.35427979 -3.54655029 -92.35427979 -3.54655029 -91.36474609 -4.19580078 C-62.32152564 -23.19861232 -26.80868041 -24.42075914 0 0 Z " fill="#38bdf8" transform="translate(1478.5625,1180.375)"/>
</svg>
